<svg id="visual" viewBox="0 0 900 600" width="900" height="600" xmlns="http://www.w3.org/2000/svg" xmlns:xlink="http://www.w3.org/1999/xlink" version="1.1"><g transform="translate(484.9528498049589 260.779393604559)"><path d="M123 -184.7C163.7 -165.1 204.2 -138.4 220.8 -101.1C237.4 -63.8 230 -15.9 245.9 51.8C261.8 119.6 301 207.1 278.8 252.6C256.6 298.2 173.1 301.6 97.4 317.1C21.8 332.6 -46 360.1 -108.9 350.9C-171.9 341.6 -229.9 295.5 -274.9 240.1C-320 184.7 -352 120 -355.1 55.1C-358.2 -9.9 -332.4 -74.9 -301.9 -136.3C-271.4 -197.6 -236.3 -255.3 -185.2 -270.1C-134.1 -285 -67 -257 -13 -236.8C41.1 -216.6 82.2 -204.2 123 -184.7" fill="#7C3AED"></path></g></svg>